<svg xmlns="http://www.w3.org/2000/svg" viewBox="0 0 189.6 39.7"><defs><style>.cls-1{fill:#cc582f;}.cls-2{fill:#4d4d4d;}.cls-3{fill:#fff;}.cls-4{fill:#333;}</style></defs><title>Ativo 1</title><g id="Camada_2" data-name="Camada 2"><g id="Layer_1" data-name="Layer 1"><path class="cls-1" d="M11,.48a.28.28,0,0,1,.27.22l.31,1.56a.28.28,0,0,1-.27.33H10.14a.28.28,0,0,1-.27-.33L10.18.7a.28.28,0,0,1,.27-.22Z"/><path class="cls-2" d="M8.89,29.07H12.6l-1.05,3.4v3.43c-.26,0-.53,0-.8,0s-.54,0-.8,0V32.47Z"/><polygon class="cls-2" points="9.79 13.76 10.18 2.6 11.31 2.6 11.7 13.76 11.96 21.04 9.53 21.04 9.79 13.76"/><path class="cls-1" d="M11.7,13.76c2.32.34,4.23,1.91,4.23,3.89a6.06,6.06,0,0,1-.3,2,2.32,2.32,0,0,0,.11,1.48.26.26,0,0,1-.33.35l-.07,0a.62.62,0,0,0-.37,0c-.64.13-1,1.35-.7,2.74s1,2.41,1.61,2.28a4.32,4.32,0,0,0,.49-.19.21.21,0,0,1,.29.2.24.24,0,0,1,0,.09,2.3,2.3,0,0,0,0,1.87,6.64,6.64,0,0,1,.74,2.79c0,2.67-2.7,4.41-5.88,4.66V32.47l1.05-3.4H8.89l1.05,3.4v3.43c-3.18-.25-5.88-2-5.88-4.66a6.63,6.63,0,0,1,.74-2.79,2.26,2.26,0,0,0,.22-1,2.33,2.33,0,0,0-.17-.88.22.22,0,0,1,.27-.29,4.31,4.31,0,0,0,.49.19c.64.13,1.36-.89,1.61-2.28s-.06-2.61-.7-2.74a.62.62,0,0,0-.37,0l-.07,0a.26.26,0,0,1-.33-.35,2.33,2.33,0,0,0,.12-1.48,6,6,0,0,1-.3-2c0-2,1.91-3.54,4.23-3.89L9.53,21H12Z"/><path class="cls-3" d="M8.6,34.35a.48.48,0,0,1-.49.12,5.82,5.82,0,0,1-1.67-.84,2.92,2.92,0,0,1-1.32-2.39,5.62,5.62,0,0,1,.63-2.33,3.23,3.23,0,0,0,.13-.3.48.48,0,0,1,.9.33,4.2,4.2,0,0,1-.17.39,4.67,4.67,0,0,0-.54,1.91A2,2,0,0,0,7,32.85a4.86,4.86,0,0,0,1.39.7.48.48,0,0,1,.19.8Z"/><path class="cls-3" d="M7.35,27.95a.48.48,0,1,1,.07-.6A.49.49,0,0,1,7.35,27.95Z"/><path class="cls-3" d="M9,22.11a.48.48,0,0,1-.8-.2A2.66,2.66,0,0,0,7.74,21a.48.48,0,0,1,.75-.6,3.61,3.61,0,0,1,.61,1.18A.48.48,0,0,1,9,22.11Z"/><path class="cls-4" d="M11.87,22.51a.48.48,0,1,0,.21.94L12.66,26a1,1,0,0,0,1.15.72.48.48,0,1,0-.21-.94L13,23.23A1,1,0,0,0,11.87,22.51Z"/><path class="cls-4" d="M10,23.09a.48.48,0,0,0-.36-.58,1,1,0,0,0-1.15.72l-.58,2.53h0a.48.48,0,1,0-.21.94,1,1,0,0,0,.72-.12,1,1,0,0,0,.17-.14A1,1,0,0,0,8.83,26l.58-2.53A.48.48,0,0,0,10,23.09Z"/><path class="cls-4" d="M11,0h-.58a.76.76,0,0,0-.74.61L9.4,2.17a.76.76,0,0,0,.29.75l0,.46h-.5a.49.49,0,0,0-.5.47.48.48,0,0,0,.48.5h.48v.42H9.17a.49.49,0,0,0-.5.47.48.48,0,0,0,.48.5h.43l-.27,7.63a5.28,5.28,0,0,0-4,3H2.08a1.67,1.67,0,0,0-1.16.45,1.61,1.61,0,0,0-.48.91.48.48,0,0,0,0,1H5.14a5.64,5.64,0,0,0,.26,1.14A1.85,1.85,0,0,1,5.3,21a.75.75,0,0,0,.16.83.73.73,0,0,0,.8.16l.08,0a.14.14,0,0,1,.08,0c.2,0,.56.85.32,2.18a3,3,0,0,1-.88,1.83h0a.27.27,0,0,1-.25,0l-.31-.13a.68.68,0,0,0-.75.15h0a.71.71,0,0,0-.15.77,1.85,1.85,0,0,1,.14.7,1.78,1.78,0,0,1-.17.77,7.05,7.05,0,0,0-.79,3,4.57,4.57,0,0,0,2.24,3.83,8.84,8.84,0,0,0,4.41,1.33V39a.53.53,0,0,0,1.07,0V36.39a8.82,8.82,0,0,0,4.38-1.33,5.78,5.78,0,0,0,.91-.74,4.32,4.32,0,0,0,1.33-3.1,7.06,7.06,0,0,0-.79-3,1.81,1.81,0,0,1,0-1.47.7.7,0,0,0-.26-.86.68.68,0,0,0-.64-.06l-.31.13a.27.27,0,0,1-.25,0h0a3,3,0,0,1-.88-1.83c-.24-1.33.12-2.14.32-2.18a.14.14,0,0,1,.09,0l.07,0a.73.73,0,0,0,.8-.16h0a.75.75,0,0,0,.16-.83,1.84,1.84,0,0,1-.1-1.15,5.67,5.67,0,0,0,.26-1.14h8.4a.48.48,0,0,0,.48-.47.5.5,0,0,0-.5-.49H23.25v-.86a.5.5,0,0,0,0-.2.48.48,0,0,0-.44-.3H16.17a5.28,5.28,0,0,0-4-3L11.9,5.73h.43a.48.48,0,0,0,.48-.47.5.5,0,0,0-.5-.49h-.45V4.35h.48a.48.48,0,0,0,.48-.47.5.5,0,0,0-.5-.49h-.5l0-.46.08-.07A.77.77,0,0,0,12,2.67a.78.78,0,0,0,.06-.51L11.78.61A.76.76,0,0,0,11,0ZM7.14,15.44a5.14,5.14,0,0,1,2.14-1.09l-.07,2H6.37A3.53,3.53,0,0,1,7.14,15.44Zm3,2.3v-.39h1.21v.39Zm1.27,1,.07,1.86H10l.07-1.86ZM6,17.65a2.6,2.6,0,0,1,0-.31H9.18v.39H6S6,17.68,6,17.65Zm-4.6.08a.66.66,0,0,1,.6-.39h3c0,.1,0,.21,0,.31v.08Zm9.3,17.71h-.32V32.95h.64v2.49Zm4.43-15.91v0a2.8,2.8,0,0,0,0,1.39,1.05,1.05,0,0,0-.29,0,1.51,1.51,0,0,0-1.06,1.25,4.94,4.94,0,0,0,0,2,3.87,3.87,0,0,0,1.29,2.46,1.16,1.16,0,0,0,.89.21l.07,0a2.75,2.75,0,0,0,.22,1.73,6.2,6.2,0,0,1,.69,2.58,3.64,3.64,0,0,1-1.81,3A7.48,7.48,0,0,1,12,35.36V32.54l1-3.33a.48.48,0,0,0-.46-.62H8.89a.48.48,0,0,0-.46.62l1,3.33v2.82a7.48,7.48,0,0,1-3.11-1.1,3.64,3.64,0,0,1-1.81-3,6.19,6.19,0,0,1,.69-2.58,2.75,2.75,0,0,0,.27-1.19,2.81,2.81,0,0,0-.05-.54l.07,0a1.17,1.17,0,0,0,.89-.21A3.87,3.87,0,0,0,7.7,24.28a4.94,4.94,0,0,0,0-2A1.51,1.51,0,0,0,6.61,21a1.05,1.05,0,0,0-.29,0,2.81,2.81,0,0,0,0-1.39v0a4.59,4.59,0,0,1-.21-.84h3L9,21a.48.48,0,0,0,.48.5H12a.48.48,0,0,0,.34-.14h0a.48.48,0,0,0,.13-.35l-.08-2.33h3A4.65,4.65,0,0,1,15.17,19.53ZM10.3,32l-.76-2.44h2.41L11.19,32Zm5.15-14.34v.08H12.33v-.39h3.12A2.62,2.62,0,0,1,15.45,17.65Zm5.93-.31h.9v.39h-.9Zm-1,0v.39h-4s0-.06,0-.08,0-.21,0-.31Zm-6.07-1.9a3.53,3.53,0,0,1,.77.94H12.28l-.07-2A5.14,5.14,0,0,1,14.35,15.44Zm-3,.94H10.18l.47-13.3h.21ZM11.1,2.12h-.71L10.62,1h.25Z"/><path class="cls-4" d="M32.53,10.75l.13-1h6l-.08,1.09-1.48.26,1,7.86.17,1.87L39.08,19l3.66-7.86-1.61-.23.09-1.11h4.9l-.16,1L44.57,11l-6,12.64H35.84L33.79,11Z"/><path class="cls-4" d="M45.07,14.15l.15-.81,3.65-.47.5.22L48.2,21.4c0,.11,0,.19,0,.23a.58.58,0,0,0,.09.35.29.29,0,0,0,.25.12.77.77,0,0,0,.34-.09,3.78,3.78,0,0,0,.5-.33l.25.67a4.28,4.28,0,0,1-1,.88,3,3,0,0,1-1.68.43,2.4,2.4,0,0,1-1.35-.32,1,1,0,0,1-.48-.85,1.4,1.4,0,0,1,0-.18q.2-1.31.74-5.42l.28-2.13ZM46.67,9a1.61,1.61,0,0,1,.63-.65,1.88,1.88,0,0,1,1-.24,1.59,1.59,0,0,1,.81.21,1.46,1.46,0,0,1,.55.53,1.35,1.35,0,0,1,.19.69,2,2,0,0,1-.47,1.35,1.8,1.8,0,0,1-1.41.52,1.34,1.34,0,0,1-.73-.21,1.64,1.64,0,0,1-.54-.56,1.4,1.4,0,0,1-.21-.72A2,2,0,0,1,46.67,9Z"/><path class="cls-4" d="M59.61,14.14a4.49,4.49,0,0,1,1.06,3.23A6.92,6.92,0,0,1,60,20.55a5.61,5.61,0,0,1-2.06,2.27,5.7,5.7,0,0,1-3.08.84,4,4,0,0,1-3.11-1.13,4.62,4.62,0,0,1-1-3.26,6.89,6.89,0,0,1,.72-3.15,5.51,5.51,0,0,1,2.05-2.24A5.74,5.74,0,0,1,56.5,13,4.12,4.12,0,0,1,59.61,14.14ZM57.2,15.45a1.86,1.86,0,0,0-.39-.86.84.84,0,0,0-.63-.26,1.5,1.5,0,0,0-1.26.72,5,5,0,0,0-.75,1.83,10.86,10.86,0,0,0-.24,2.31v.36a9.92,9.92,0,0,0,.17,1.7,1.93,1.93,0,0,0,.41.92.94.94,0,0,0,.72.29,1.42,1.42,0,0,0,1.23-.74,5.23,5.23,0,0,0,.7-1.87,12.67,12.67,0,0,0,.22-2.39v-.38A8.46,8.46,0,0,0,57.2,15.45Z"/><path class="cls-4" d="M63.55,10l-1.2-.39.18-.76,3.7-.38.46.25L65,21.4a2.29,2.29,0,0,0,0,.24q0,.46.34.46a.77.77,0,0,0,.33-.08,3.33,3.33,0,0,0,.51-.34l.26.67a4.13,4.13,0,0,1-1,.88,2.74,2.74,0,0,1-1.59.44,2.92,2.92,0,0,1-1.39-.3,1,1,0,0,1-.57-.93,3.11,3.11,0,0,1,0-.41l0-.29Z"/><path class="cls-4" d="M76.31,14.14a4.49,4.49,0,0,1,1.06,3.23,6.92,6.92,0,0,1-.72,3.17,5.61,5.61,0,0,1-2.06,2.27,5.7,5.7,0,0,1-3.08.84,4,4,0,0,1-3.11-1.13,4.62,4.62,0,0,1-1-3.26,6.89,6.89,0,0,1,.72-3.15,5.51,5.51,0,0,1,2.05-2.24A5.74,5.74,0,0,1,73.2,13,4.12,4.12,0,0,1,76.31,14.14ZM73.9,15.45a1.86,1.86,0,0,0-.39-.86.84.84,0,0,0-.63-.26,1.5,1.5,0,0,0-1.26.72,5,5,0,0,0-.75,1.83,10.86,10.86,0,0,0-.24,2.31v.36a9.92,9.92,0,0,0,.17,1.7,1.93,1.93,0,0,0,.41.92.94.94,0,0,0,.72.29,1.42,1.42,0,0,0,1.23-.74,5.23,5.23,0,0,0,.7-1.87,12.67,12.67,0,0,0,.22-2.39v-.38A8.46,8.46,0,0,0,73.9,15.45Z"/><path class="cls-4" d="M78.8,14.32l.15-.81L82.35,13l.47.22-.15,1.91a5.09,5.09,0,0,1,1.5-1.56A3.43,3.43,0,0,1,86.1,13a2.38,2.38,0,0,1,1.77.65,2.91,2.91,0,0,1,.64,2.1A29.08,29.08,0,0,1,88.07,19l-.1.6q-.15.8-.21,1.29a6,6,0,0,0-.07.84.6.6,0,0,0,.1.4.34.34,0,0,0,.26.1.71.71,0,0,0,.32-.09,3.94,3.94,0,0,0,.5-.33l.26.67a4,4,0,0,1-1,.75,3.47,3.47,0,0,1-1.73.39,1.94,1.94,0,0,1-1.48-.43,1.61,1.61,0,0,1-.37-1.1,5,5,0,0,1,.09-.8q.09-.5.27-1.47L85,19.5q.19-1.05.3-1.84a10.81,10.81,0,0,0,.11-1.46,3.58,3.58,0,0,0-.07-.82.74.74,0,0,0-.23-.42.67.67,0,0,0-.42-.12,1.7,1.7,0,0,0-1.15.65,5.88,5.88,0,0,0-1.06,1.58l-.9,6.57h-3l1.19-8.77Z"/><path class="cls-4" d="M90.91,16.29a5.71,5.71,0,0,1,2-2.35A5.58,5.58,0,0,1,96.14,13a9,9,0,0,1,1.25.09,5.22,5.22,0,0,1,1.08.26l-.76,2.89H97q-.56-.84-.93-1.32t-.63-.49a1.35,1.35,0,0,0-1,.6,4.68,4.68,0,0,0-.82,1.66,8.17,8.17,0,0,0-.32,2.36,6.48,6.48,0,0,0,.17,1.65,1.7,1.7,0,0,0,.52.91,1.39,1.39,0,0,0,.91.29,2.77,2.77,0,0,0,1.35-.3,3.2,3.2,0,0,0,1-.83l.58.91a3.64,3.64,0,0,1-.84.9,4.89,4.89,0,0,1-1.39.74,5.36,5.36,0,0,1-1.83.3,3.5,3.5,0,0,1-1.89-.49,3.17,3.17,0,0,1-1.22-1.47,5.91,5.91,0,0,1-.43-2.38A7.08,7.08,0,0,1,90.91,16.29Z"/><path class="cls-4" d="M107.2,13.68a2.12,2.12,0,0,1,.74,1.68,2.91,2.91,0,0,1-.88,2.17,5.43,5.43,0,0,1-2.18,1.28,8.42,8.42,0,0,1-2.58.42,3.93,3.93,0,0,0,.45,2.09A1.41,1.41,0,0,0,104,22a2.79,2.79,0,0,0,1.59-.42,4.93,4.93,0,0,0,1.13-1.06l.58.92a4.49,4.49,0,0,1-.87,1,5.11,5.11,0,0,1-1.45.85,5.18,5.18,0,0,1-2,.35,4.12,4.12,0,0,1-2.29-.58,3.41,3.41,0,0,1-1.3-1.51,5,5,0,0,1-.41-2,7,7,0,0,1,.78-3.34,5.91,5.91,0,0,1,2.13-2.32,5.58,5.58,0,0,1,3-.84A3.37,3.37,0,0,1,107.2,13.68Zm-2.4.93a.59.59,0,0,0-.54-.3,1.53,1.53,0,0,0-1.41,1.16,8.47,8.47,0,0,0-.56,2.65,2.72,2.72,0,0,0,1.23-.32,3,3,0,0,0,1.08-.92A2.13,2.13,0,0,0,105,15.5,1.91,1.91,0,0,0,104.81,14.61Z"/><path class="cls-4" d="M110.74,10l-1.2-.39.18-.76,3.7-.38.46.25L112.21,21.4a2.29,2.29,0,0,0,0,.24q0,.46.34.46a.77.77,0,0,0,.33-.08,3.33,3.33,0,0,0,.51-.34l.26.67a4.13,4.13,0,0,1-1,.88,2.74,2.74,0,0,1-1.59.44,2.92,2.92,0,0,1-1.39-.3,1,1,0,0,1-.57-.93,3.11,3.11,0,0,1,0-.41l0-.29Z"/><path class="cls-4" d="M122,13.15a7.37,7.37,0,0,1,1.06.28l1.39-.39-1.18,8.38a1.66,1.66,0,0,0,0,.19q0,.48.36.48a1.66,1.66,0,0,0,.85-.41l.26.65a3.31,3.31,0,0,1-1.37,1.08,2.87,2.87,0,0,1-1.18.24,1.87,1.87,0,0,1-1.11-.3,1,1,0,0,1-.44-.85,4.13,4.13,0,0,1-1.2.83,3.71,3.71,0,0,1-1.57.32,3.09,3.09,0,0,1-1.81-.5A2.94,2.94,0,0,1,115,21.79a5.15,5.15,0,0,1-.34-1.93,7.93,7.93,0,0,1,.72-3.36A6.05,6.05,0,0,1,122,13.15Zm-.71,1.22a3.53,3.53,0,0,0-.62-.05,2,2,0,0,0-1.68.82,5.12,5.12,0,0,0-.92,2.06,11.71,11.71,0,0,0-.28,2.57,3.38,3.38,0,0,0,.36,1.7,1.1,1.1,0,0,0,1,.61,1.75,1.75,0,0,0,1.15-.49Z"/><path class="cls-4" d="M126.16,14.32l.15-.81,3.41-.47.47.22L130,15.17a5.09,5.09,0,0,1,1.5-1.56,3.43,3.43,0,0,1,1.92-.57,2.38,2.38,0,0,1,1.77.65,2.91,2.91,0,0,1,.64,2.1,29.08,29.08,0,0,1-.45,3.25l-.1.6q-.15.8-.21,1.29a6,6,0,0,0-.07.84.6.6,0,0,0,.1.4.34.34,0,0,0,.26.1.71.71,0,0,0,.32-.09,3.94,3.94,0,0,0,.5-.33l.26.67a4,4,0,0,1-1,.75,3.47,3.47,0,0,1-1.73.39,1.94,1.94,0,0,1-1.48-.43,1.61,1.61,0,0,1-.37-1.1,5,5,0,0,1,.09-.8q.09-.5.27-1.47l.06-.35q.19-1.05.3-1.84a10.81,10.81,0,0,0,.11-1.46,3.58,3.58,0,0,0-.07-.82.74.74,0,0,0-.23-.42.67.67,0,0,0-.42-.12,1.7,1.7,0,0,0-1.15.65,5.88,5.88,0,0,0-1.06,1.58l-.9,6.57h-3l1.19-8.77Z"/><path class="cls-4" d="M138.3,16.49a5.8,5.8,0,0,1,2.08-2.5,5.91,5.91,0,0,1,3.41-1,6.89,6.89,0,0,1,.93.08l.44-3-1.42-.39L143.9,9l3.94-.38.51.25-1.84,12.54c0,.12,0,.2,0,.24q0,.46.34.46a.79.79,0,0,0,.33-.09,3.48,3.48,0,0,0,.51-.32l.26.65a6.06,6.06,0,0,1-.53.55,3.28,3.28,0,0,1-.81.51,2.77,2.77,0,0,1-1.2.25,1.59,1.59,0,0,1-1.17-.38,1.74,1.74,0,0,1-.43-1.14,4,4,0,0,1-1.23,1.08,3.49,3.49,0,0,1-1.8.45,2.73,2.73,0,0,1-2.37-1,4.55,4.55,0,0,1-.76-2.74A8.27,8.27,0,0,1,138.3,16.49Zm6.22-2a2.86,2.86,0,0,0-.95-.14,2,2,0,0,0-1.67.82,5.06,5.06,0,0,0-.9,2.06,12.11,12.11,0,0,0-.27,2.58,3.48,3.48,0,0,0,.35,1.71,1.07,1.07,0,0,0,1,.61,1.4,1.4,0,0,0,.81-.26,2.76,2.76,0,0,0,.67-.66Z"/><path class="cls-4" d="M157.91,14.14A4.49,4.49,0,0,1,159,17.37a6.92,6.92,0,0,1-.72,3.17,5.61,5.61,0,0,1-2.06,2.27,5.7,5.7,0,0,1-3.08.84A4,4,0,0,1,150,22.52a4.62,4.62,0,0,1-1-3.26,6.89,6.89,0,0,1,.72-3.15,5.51,5.51,0,0,1,2.05-2.24A5.74,5.74,0,0,1,154.8,13,4.12,4.12,0,0,1,157.91,14.14Zm-2.42,1.31a1.86,1.86,0,0,0-.39-.86.84.84,0,0,0-.63-.26,1.5,1.5,0,0,0-1.26.72,5,5,0,0,0-.75,1.83,10.86,10.86,0,0,0-.24,2.31v.36a9.92,9.92,0,0,0,.17,1.7,1.93,1.93,0,0,0,.41.92.94.94,0,0,0,.72.29,1.42,1.42,0,0,0,1.23-.74,5.23,5.23,0,0,0,.7-1.87,12.67,12.67,0,0,0,.22-2.39v-.38A8.46,8.46,0,0,0,155.49,15.45Z"/><path class="cls-4" d="M33.28,32.28a3.84,3.84,0,0,1,1.09-1.5,2.56,2.56,0,0,1,1.7-.6,3,3,0,0,1,.63.07,2.4,2.4,0,0,1,.56.18l-.32,1.1-.12-.1a1.61,1.61,0,0,0-1-.47,1.38,1.38,0,0,0-.93.34,2.2,2.2,0,0,0-.62,1,5,5,0,0,0-.22,1.58,2.48,2.48,0,0,0,.29,1.34.9.9,0,0,0,.8.44,1.64,1.64,0,0,0,.67-.13,4.78,4.78,0,0,0,.76-.46l.21.42a3,3,0,0,1-.79.63,2.3,2.3,0,0,1-1.17.29,1.84,1.84,0,0,1-1-.28,1.77,1.77,0,0,1-.66-.82A3.25,3.25,0,0,1,32.91,34,4.53,4.53,0,0,1,33.28,32.28Z"/><path class="cls-4" d="M42.3,30.84a2.76,2.76,0,0,1,.55,1.84,4.31,4.31,0,0,1-.4,1.82,3.58,3.58,0,0,1-1.09,1.39,2.52,2.52,0,0,1-1.56.53,2,2,0,0,1-1.58-.65,2.75,2.75,0,0,1-.55-1.83,4.31,4.31,0,0,1,.4-1.82,3.61,3.61,0,0,1,1.09-1.39,2.5,2.5,0,0,1,1.56-.53A2,2,0,0,1,42.3,30.84Zm-.9.49a1,1,0,0,0-.88-.49,1.18,1.18,0,0,0-.94.46A3,3,0,0,0,39,32.46a5.25,5.25,0,0,0-.19,1.41,2.74,2.74,0,0,0,.29,1.4,1,1,0,0,0,.88.49,1.19,1.19,0,0,0,.95-.46,3,3,0,0,0,.58-1.17,5.38,5.38,0,0,0,.19-1.41A2.66,2.66,0,0,0,41.4,31.33Z"/><path class="cls-4" d="M48,31.86a1.71,1.71,0,0,0-.06-.55.37.37,0,0,0-.18-.23.87.87,0,0,0-.33-.05,1.59,1.59,0,0,0-.9.37,4,4,0,0,0-.91.94l-.55,4.06H44l.69-5.15-.53-.32.1-.48,1.32-.28.26.13-.1,1.14a4,4,0,0,1,1-.91,2.17,2.17,0,0,1,1.14-.35,1.11,1.11,0,0,1,.83.31,1.59,1.59,0,0,1,.35,1,3.91,3.91,0,0,1,1-1,2,2,0,0,1,1.13-.37,1.09,1.09,0,0,1,.89.4,1.88,1.88,0,0,1,.33,1.22,4.79,4.79,0,0,1,0,.64q0,.36-.14.95c0,.07,0,.17-.05.31-.06.39-.11.71-.15,1s-.06.49-.08.74v.12q0,.28.12.28a.46.46,0,0,0,.22-.07,2.49,2.49,0,0,0,.36-.28l.17.28a1.59,1.59,0,0,1-.27.26,2.17,2.17,0,0,1-.47.29,1.35,1.35,0,0,1-.58.13.57.57,0,0,1-.65-.69q0-.34.07-.74c0-.27.09-.61.16-1l0-.26q.1-.58.16-1a6.53,6.53,0,0,0,.06-.82,1.51,1.51,0,0,0-.07-.53.38.38,0,0,0-.18-.23.7.7,0,0,0-.29-.05,1.44,1.44,0,0,0-.84.36,4.38,4.38,0,0,0-.87.92Q49.06,33,49,33.7l-.34,2.71H47.53l.3-2.37A14.13,14.13,0,0,0,48,31.86Z"/><path class="cls-4" d="M60.43,30.24a4.49,4.49,0,0,1,.53.13l.65-.18-.7,5.12a.81.81,0,0,0,0,.11.38.38,0,0,0,0,.21.14.14,0,0,0,.12.07.44.44,0,0,0,.19-.05,1.8,1.8,0,0,0,.28-.19l.17.28a1.08,1.08,0,0,1-.23.25,2,2,0,0,1-.44.29,1.2,1.2,0,0,1-.54.13.74.74,0,0,1-.53-.17.67.67,0,0,1-.16-.55l0-.34a3.5,3.5,0,0,1-.81.76,1.68,1.68,0,0,1-.95.31,1.41,1.41,0,0,1-1.26-.61,3,3,0,0,1-.4-1.66,4.27,4.27,0,0,1,.42-1.78,4.11,4.11,0,0,1,1.22-1.55,2.89,2.89,0,0,1,1.83-.62A2.86,2.86,0,0,1,60.43,30.24Zm0,.77a1.28,1.28,0,0,0-.69-.16,1.61,1.61,0,0,0-1.2.51,3.19,3.19,0,0,0-.73,1.25A4.65,4.65,0,0,0,57.56,34q0,1.65.76,1.65a1.4,1.4,0,0,0,.87-.37A4.16,4.16,0,0,0,60,34.5Z"/><path class="cls-4" d="M66.13,35.65l2-8.23-1-.15.08-.65h2.87l1.05,6.71.1,1.07.42-1.07q.46-1.1,1.5-3.44t1.43-3.26H77.3l-.07.65-1.06.15L76,35.65l1,.19-.06.57H73.51l.06-.57,1.13-.18.24-5.79.19-2.59-.88,2.28-3,6.86-.72.1-1.1-6.8L69,27.29l-.46,2.49-1.36,5.87,1.2.19-.06.57H65l.06-.57Z"/><path class="cls-4" d="M82.77,29a5.42,5.42,0,0,1,.64.16l.78-.22-.84,6.15a1.13,1.13,0,0,0,0,.13.46.46,0,0,0,.06.25.17.17,0,0,0,.14.09.53.53,0,0,0,.22-.06,2.18,2.18,0,0,0,.34-.22l.2.34a1.31,1.31,0,0,1-.27.3,2.33,2.33,0,0,1-.53.35,1.44,1.44,0,0,1-.65.15.89.89,0,0,1-.63-.21.8.8,0,0,1-.2-.66l0-.41a4.22,4.22,0,0,1-1,.91,2,2,0,0,1-1.14.37,1.69,1.69,0,0,1-1.52-.73,3.59,3.59,0,0,1-.49-2,5.14,5.14,0,0,1,.51-2.14,5,5,0,0,1,1.46-1.86A3.51,3.51,0,0,1,82.77,29Zm0,.92a1.54,1.54,0,0,0-.83-.2,1.94,1.94,0,0,0-1.45.61,3.81,3.81,0,0,0-.88,1.5,5.58,5.58,0,0,0-.29,1.74q0,2,.91,2a1.68,1.68,0,0,0,1.05-.44,5.05,5.05,0,0,0,.93-1Z"/><path class="cls-4" d="M86,29.83l.12-.57,1.58-.33.31.15-.13,1.48a3.55,3.55,0,0,1,.48-.7,3,3,0,0,1,.8-.65,2,2,0,0,1,1-.28.6.6,0,0,1,.39.08l-.29,1.39a1.39,1.39,0,0,0-.66-.11,1.87,1.87,0,0,0-1.05.35,2.52,2.52,0,0,0-.86,1.13l-.58,4.63H85.84l.78-6.19Z"/><path class="cls-4" d="M91.25,29.66l.12-.52,2-.33.32.15-.89,6.1a1.35,1.35,0,0,0,0,.2c0,.19.05.29.16.29a.57.57,0,0,0,.27-.09,2.4,2.4,0,0,0,.41-.33l.21.35a2.33,2.33,0,0,1-.32.36,2.58,2.58,0,0,1-.57.4,1.46,1.46,0,0,1-.69.18q-.82,0-.82-.75v-.11q0-.42.12-1t.28-1.88q.3-2,.4-2.68Zm1.36-3.38a1.12,1.12,0,0,1,.36-.36.83.83,0,0,1,.44-.13A.8.8,0,0,1,94,26a.68.68,0,0,1,.22.51,1,1,0,0,1-.13.49,1,1,0,0,1-.36.37.92.92,0,0,1-.49.14.76.76,0,0,1-.75-.75A.87.87,0,0,1,92.61,26.28Z"/><path class="cls-4" d="M99.82,29a5.42,5.42,0,0,1,.64.16l.78-.22-.84,6.15a1.13,1.13,0,0,0,0,.13.46.46,0,0,0,.06.25.17.17,0,0,0,.14.09.53.53,0,0,0,.22-.06,2.18,2.18,0,0,0,.34-.22l.2.34a1.31,1.31,0,0,1-.27.3,2.33,2.33,0,0,1-.53.35,1.44,1.44,0,0,1-.65.15.89.89,0,0,1-.63-.21.8.8,0,0,1-.2-.66l0-.41a4.22,4.22,0,0,1-1,.91,2,2,0,0,1-1.14.37,1.69,1.69,0,0,1-1.52-.73,3.59,3.59,0,0,1-.49-2,5.14,5.14,0,0,1,.51-2.14A5,5,0,0,1,97,29.67,3.51,3.51,0,0,1,99.82,29Zm0,.92a1.54,1.54,0,0,0-.83-.2,1.94,1.94,0,0,0-1.45.61,3.81,3.81,0,0,0-.88,1.5,5.58,5.58,0,0,0-.29,1.74q0,2,.91,2a1.68,1.68,0,0,0,1.05-.44,5.05,5.05,0,0,0,.93-1Z"/><path class="cls-4" d="M110.51,29.13a1.4,1.4,0,0,1,.62.56,1.6,1.6,0,0,1,.2.81,1.94,1.94,0,0,1-.75,1.53,5.15,5.15,0,0,1-1.76,1,5.82,5.82,0,0,1-1.74.33c0,.11,0,.2,0,.27a2.93,2.93,0,0,0,.14.9,1.7,1.7,0,0,0,.45.74,1.11,1.11,0,0,0,.79.29,2.88,2.88,0,0,0,1.09-.23,3.56,3.56,0,0,0,1.08-.71l.3.54a2.94,2.94,0,0,1-.6.58,3.79,3.79,0,0,1-.93.51,3,3,0,0,1-1.12.21,2.54,2.54,0,0,1-1.46-.4,2.36,2.36,0,0,1-.86-1,3.33,3.33,0,0,1-.26-1.4,5.56,5.56,0,0,1,.54-2.26,4.56,4.56,0,0,1,1.37-1.72,3.07,3.07,0,0,1,1.89-.65A2.3,2.3,0,0,1,110.51,29.13Zm-.75.78a.76.76,0,0,0-.58-.23,1.39,1.39,0,0,0-1,.48,3.49,3.49,0,0,0-.71,1.16,5.41,5.41,0,0,0-.33,1.28,3.56,3.56,0,0,0,1.24-.25,3.43,3.43,0,0,0,1.16-.71,1.39,1.39,0,0,0,.48-1A1,1,0,0,0,109.77,29.91Z"/><path class="cls-4" d="M120.36,29a5.42,5.42,0,0,1,.64.16l.78-.22-.84,6.15a1.13,1.13,0,0,0,0,.13.46.46,0,0,0,.06.25.17.17,0,0,0,.14.09.53.53,0,0,0,.22-.06,2.18,2.18,0,0,0,.34-.22l.2.34a1.31,1.31,0,0,1-.27.3,2.33,2.33,0,0,1-.53.35,1.44,1.44,0,0,1-.65.15.89.89,0,0,1-.63-.21.8.8,0,0,1-.2-.66l0-.41a4.22,4.22,0,0,1-1,.91,2,2,0,0,1-1.14.37,1.69,1.69,0,0,1-1.52-.73,3.59,3.59,0,0,1-.49-2,5.14,5.14,0,0,1,.51-2.14,5,5,0,0,1,1.46-1.86,3.51,3.51,0,0,1,2.84-.68Zm0,.92a1.54,1.54,0,0,0-.83-.2,1.94,1.94,0,0,0-1.45.61,3.81,3.81,0,0,0-.88,1.5,5.58,5.58,0,0,0-.29,1.74q0,2,.91,2a1.68,1.68,0,0,0,1.05-.44,5.05,5.05,0,0,0,.93-1Z"/><path class="cls-4" d="M126.43,35.65l2-8.23-1-.15.08-.65h2.87l1.05,6.71.1,1.07.42-1.07q.46-1.1,1.5-3.44t1.43-3.26h2.72l-.07.65-1.06.15-.16,8.22,1,.19-.06.57h-3.42l.06-.57,1.13-.18.24-5.79.19-2.59-.88,2.28-3,6.86-.72.1-1.1-6.8-.39-2.42-.46,2.49-1.36,5.87,1.2.19-.06.57h-3.29l.06-.57Z"/><path class="cls-4" d="M143.07,29a5.42,5.42,0,0,1,.64.16l.78-.22-.84,6.15a1.13,1.13,0,0,0,0,.13.46.46,0,0,0,.06.25.17.17,0,0,0,.14.09.53.53,0,0,0,.22-.06,2.18,2.18,0,0,0,.34-.22l.2.34a1.31,1.31,0,0,1-.27.3,2.33,2.33,0,0,1-.53.35,1.44,1.44,0,0,1-.65.15.89.89,0,0,1-.63-.21.8.8,0,0,1-.2-.66l0-.41a4.22,4.22,0,0,1-1,.91,2,2,0,0,1-1.14.37,1.69,1.69,0,0,1-1.52-.73,3.59,3.59,0,0,1-.49-2,5.14,5.14,0,0,1,.51-2.14,5,5,0,0,1,1.46-1.86,3.51,3.51,0,0,1,2.84-.68Zm0,.92a1.54,1.54,0,0,0-.83-.2,1.94,1.94,0,0,0-1.45.61,3.81,3.81,0,0,0-.88,1.5,5.58,5.58,0,0,0-.29,1.74q0,2,.91,2a1.68,1.68,0,0,0,1.05-.44,5.05,5.05,0,0,0,.93-1Z"/><path class="cls-4" d="M146.28,29.83l.12-.57,1.58-.33.31.15-.13,1.48a3.55,3.55,0,0,1,.48-.7,3,3,0,0,1,.8-.65,2,2,0,0,1,1-.28.6.6,0,0,1,.39.08l-.29,1.39a1.39,1.39,0,0,0-.66-.11,1.87,1.87,0,0,0-1.05.35,2.52,2.52,0,0,0-.86,1.13l-.58,4.63h-1.28l.78-6.19Z"/><path class="cls-4" d="M156.09,29a4.71,4.71,0,0,1,.67.19l.78-.27-1.23,8a3,3,0,0,1-.71,1.58,3.41,3.41,0,0,1-1.31.91,4,4,0,0,1-1.46.29,4.92,4.92,0,0,1-.81-.07,2.75,2.75,0,0,1-.61-.16l.32-1.22a4.6,4.6,0,0,0,.8.3,3.4,3.4,0,0,0,.92.13,2.38,2.38,0,0,0,.84-.11.8.8,0,0,0,.43-.4,3.09,3.09,0,0,0,.23-.87l.29-1.86a3.07,3.07,0,0,1-.86.69,2.22,2.22,0,0,1-1.08.27,2,2,0,0,1-1.18-.35,2.07,2.07,0,0,1-.71-1,4,4,0,0,1-.23-1.42,5.14,5.14,0,0,1,.51-2.14,5,5,0,0,1,1.46-1.86,3.47,3.47,0,0,1,2.2-.75A3.53,3.53,0,0,1,156.09,29Zm0,1a1.48,1.48,0,0,0-.91-.25,1.93,1.93,0,0,0-1.45.61,3.85,3.85,0,0,0-.88,1.52,5.64,5.64,0,0,0-.29,1.74,3,3,0,0,0,.27,1.4.82.82,0,0,0,.74.5,1.85,1.85,0,0,0,1-.34,3.2,3.2,0,0,0,.83-.78Z"/><path class="cls-4" d="M163.42,29a5.42,5.42,0,0,1,.64.16l.78-.22L164,35.08a1.13,1.13,0,0,0,0,.13.46.46,0,0,0,.06.25.17.17,0,0,0,.14.09.53.53,0,0,0,.22-.06,2.18,2.18,0,0,0,.34-.22l.2.34a1.31,1.31,0,0,1-.27.3,2.33,2.33,0,0,1-.53.35,1.44,1.44,0,0,1-.65.15.89.89,0,0,1-.63-.21.8.8,0,0,1-.2-.66l0-.41a4.22,4.22,0,0,1-1,.91,2,2,0,0,1-1.14.37,1.69,1.69,0,0,1-1.52-.73,3.59,3.59,0,0,1-.49-2,5.14,5.14,0,0,1,.51-2.14,5,5,0,0,1,1.46-1.86,3.51,3.51,0,0,1,2.84-.68Zm0,.92a1.54,1.54,0,0,0-.83-.2,1.94,1.94,0,0,0-1.45.61,3.81,3.81,0,0,0-.88,1.5,5.58,5.58,0,0,0-.29,1.74q0,2,.91,2a1.68,1.68,0,0,0,1.05-.44,5.05,5.05,0,0,0,.93-1Z"/><path class="cls-4" d="M166.63,29.83l.12-.57,1.58-.33.31.15-.13,1.48a3.55,3.55,0,0,1,.48-.7,3,3,0,0,1,.8-.65,2,2,0,0,1,1-.28.6.6,0,0,1,.39.08l-.29,1.39a1.39,1.39,0,0,0-.66-.11,1.87,1.87,0,0,0-1.05.35,2.52,2.52,0,0,0-.86,1.13l-.58,4.63h-1.28l.78-6.19Z"/><path class="cls-4" d="M171.9,29.66l.12-.52,2-.33.32.15-.89,6.1a1.35,1.35,0,0,0,0,.2c0,.19.05.29.16.29a.57.57,0,0,0,.27-.09,2.4,2.4,0,0,0,.41-.33l.21.35a2.33,2.33,0,0,1-.32.36,2.58,2.58,0,0,1-.57.4,1.46,1.46,0,0,1-.69.18q-.82,0-.82-.75v-.11q0-.42.12-1t.28-1.88q.3-2,.4-2.68Zm1.36-3.38a1.12,1.12,0,0,1,.36-.36.83.83,0,0,1,.44-.13.8.8,0,0,1,.58.21.68.68,0,0,1,.22.51,1,1,0,0,1-.13.49,1,1,0,0,1-.36.37.92.92,0,0,1-.49.14.76.76,0,0,1-.75-.75A.87.87,0,0,1,173.25,26.28Z"/><path class="cls-4" d="M176.17,31.53a5,5,0,0,1,1.46-1.86,3.46,3.46,0,0,1,2.2-.75,4.17,4.17,0,0,1,.88.12l.33-2.16-.8-.28.13-.53,1.74-.27.34.17-1.34,9.1c0,.08,0,.14,0,.18,0,.2.05.3.15.3a.52.52,0,0,0,.22-.06,2.18,2.18,0,0,0,.34-.22l.2.33a1.62,1.62,0,0,1-.29.31,2.4,2.4,0,0,1-.52.35,1.38,1.38,0,0,1-.63.15.79.79,0,0,1-.6-.21.91.91,0,0,1-.19-.67v-.15a3,3,0,0,1-.87.73,2.22,2.22,0,0,1-1.12.29,2,2,0,0,1-1.18-.35,2.07,2.07,0,0,1-.71-1,4,4,0,0,1-.23-1.42A5.14,5.14,0,0,1,176.17,31.53ZM180.56,30a1.41,1.41,0,0,0-.92-.27,1.93,1.93,0,0,0-1.45.62,3.87,3.87,0,0,0-.88,1.53,5.83,5.83,0,0,0-.29,1.76,3.05,3.05,0,0,0,.27,1.42.82.82,0,0,0,.74.5,1.85,1.85,0,0,0,1-.34,3.16,3.16,0,0,0,.83-.78Z"/><path class="cls-4" d="M188.06,29a5.42,5.42,0,0,1,.64.16l.78-.22-.84,6.15a1.13,1.13,0,0,0,0,.13.46.46,0,0,0,.06.25.17.17,0,0,0,.14.09.53.53,0,0,0,.22-.06,2.18,2.18,0,0,0,.34-.22l.2.34a1.31,1.31,0,0,1-.27.3,2.33,2.33,0,0,1-.53.35,1.44,1.44,0,0,1-.65.15.89.89,0,0,1-.63-.21.8.8,0,0,1-.2-.66l0-.41a4.22,4.22,0,0,1-1,.91,2,2,0,0,1-1.14.37,1.69,1.69,0,0,1-1.52-.73,3.59,3.59,0,0,1-.49-2,5.14,5.14,0,0,1,.51-2.14,5,5,0,0,1,1.46-1.86,3.51,3.51,0,0,1,2.84-.68Zm0,.92a1.54,1.54,0,0,0-.83-.2,1.94,1.94,0,0,0-1.45.61,3.81,3.81,0,0,0-.88,1.5,5.58,5.58,0,0,0-.29,1.74q0,2,.91,2a1.68,1.68,0,0,0,1.05-.44,5.05,5.05,0,0,0,.93-1Z"/></g></g></svg>